<svg width="16" height="16" viewBox="0 0 16 16" fill="none" xmlns="http://www.w3.org/2000/svg">
<g clip-path="url(#clip0_86_104)">
<path d="M9.71439 3.99998V2.85713C9.71439 2.55402 9.59398 2.26333 9.37965 2.049C9.16533 1.83468 8.87464 1.71427 8.57153 1.71427H7.42868M4.57153 12H1.71439C1.41129 12 1.1206 11.8796 0.906268 11.6652C0.691941 11.4509 0.571533 11.1602 0.571533 10.8571V2.85713C0.571533 2.55402 0.691941 2.26333 0.906268 2.049C1.1206 1.83468 1.41129 1.71427 1.71439 1.71427H2.85725M9.71439 9.71427H13.143M9.71439 12H13.143M14.2858 6.2857H8.57153C8.26843 6.2857 7.97774 6.4061 7.76341 6.62043C7.54908 6.83476 7.42868 7.12545 7.42868 7.42855V14.2857C7.42868 14.5888 7.54908 14.8795 7.76341 15.0938C7.97774 15.3081 8.26843 15.4286 8.57153 15.4286H14.2858C14.5889 15.4286 14.8796 15.3081 15.0939 15.0938C15.3083 14.8795 15.4287 14.5888 15.4287 14.2857V7.42855C15.4287 7.12545 15.3083 6.83476 15.0939 6.62043C14.8796 6.4061 14.5889 6.2857 14.2858 6.2857ZM7.71439 0.571411H2.57153L3.0401 2.42284C3.06865 2.54676 3.13852 2.65727 3.23822 2.7362C3.33792 2.81513 3.46152 2.85778 3.58868 2.85713H6.69725C6.82441 2.85778 6.948 2.81513 7.0477 2.7362C7.1474 2.65727 7.21727 2.54676 7.24582 2.42284L7.71439 0.571411Z" stroke="#141414" stroke-linecap="round" stroke-linejoin="round"/>
</g>
<defs>
<clipPath id="clip0_86_104">
<rect width="16" height="16" fill="white"/>
</clipPath>
</defs>
</svg>
